<svg fill="#000000" height="24" viewBox="0 0 24 24" width="24" xmlns="http://www.w3.org/2000/svg">
    <path d="M9 15h6v1.5H9z"/>
    <circle cx="15.5" cy="11.5" r="1.5"/>
    <circle cx="8.5" cy="11.5" r="1.5"/>
    <polygon points="4.86478673 7.69199738 8.64686104 6.38972476 9.13521327 7.80800262 5.35313896 9.11027524"></polygon>
    <polygon points="15.353139 6.38972476 19.1352133 7.69199738 18.646861 9.11027524 14.8647867 7.80800262"></polygon>
    <path d="M11.99 2C6.47 2 2 6.48 2 12s4.47 10 9.99 10C17.52 22 22 17.52 22 12S17.52 2 11.99 2zM12 20c-4.42 0-8-3.58-8-8s3.58-8 8-8 8 3.58 8 8-3.58 8-8 8z"/>
    <path d="M0 0h24v24H0z" fill="none"/>
</svg>
