<svg fill="#000000" height="24" viewBox="0 0 24 24" width="24" xmlns="http://www.w3.org/2000/svg">
    <path d="M17.99656 20C16.32368 21.25568 14.24406 22 11.99 22C6.47 22 2 17.52 2 12C2 6.48 6.47 2 11.99 2C17.52 2 22 6.48 22 12C22 15.26847 20.42932 18.17232 18 19.99741L18 20L17.9966 20L17.99656 20M10 16.00118C10 14.89596 10.88773 14 12 14C13.10457 14 14 14.89591 14 16.00118L14 17.49882C14 18.60404 13.11227 19.5 12 19.5C10.89543 19.5 10 18.60409 10 17.49882L10 16.00118M4.924253 8.262366L7.226073 6.589996L8.107751 7.803522L4.871684 10.15466L4.397391 9.501856C4.139488 10.28779 4 11.12753 4 12C4 14.03 4.755148 15.88282 6 17.29301L6 11L5 11C5.457143 9.834286 6.588572 9 7.92 9C9.251429 9 10.38286 9.834286 10.84 11L8 11L8 18.93056C9.176524 19.61078 10.5426 20 12 20C13.4574 20 14.82347 19.61078 16 18.93056L16 11L13 11C13.45714 9.834286 14.58857 9 15.92 9C17.25143 9 18.38286 9.834286 18.84 11L18 11L18 17.29301C19.24485 15.88282 20 14.03 20 12C20 11.16196 19.8713 10.35412 19.63259 9.595147L19.22607 10.15466L15.99001 7.803522L16.87168 6.589996L19.01267 8.145517C17.65185 5.673832 15.02229 4 12 4C8.930318 4 6.265791 5.726733 4.924253 8.262366"/>
    <path d="M0 0h24v24H0z" fill="none"/>
</svg>
