<svg fill="#000000" height="24" viewBox="0 0 24 24" width="24" xmlns="http://www.w3.org/2000/svg">
    <path d="M0 0h24v24H0z" fill="none"/>
    <circle cx="15.5" cy="12.5" r="1.5"/>
    <circle cx="8.5" cy="12.5" r="1.5"/>
    <path d="M11.99,2 C6.47,2 2,6.48 2,12 C2,17.52 6.47,22 11.99,22 C17.52,22 22,17.52 22,12 C22,6.48 17.52,2 11.99,2 L11.99,2 Z M12,20 C7.58,20 4,16.42 4,12 C4,7.58 7.58,4 12,4 C16.42,4 20,7.58 20,12 C20,16.42 16.42,20 12,20 L12,20 Z M12,14 C9.67,14 7.68,15.45 6.88,17.5 L8.55,17.5 C9.24,16.31 10.52,15.5 12,15.5 C13.48,15.5 14.75,16.31 15.45,17.5 L17.12,17.5 C16.32,15.45 14.33,14 12,14 L12,14 Z M11.1360184,11.2699525 L6.68098575,9 L6,10.3365098 L10.4550326,12.6064623 L11.1360184,11.2699525 Z M13,11.2699525 L17.4550326,9 L18.1360184,10.3365098 L13.6809857,12.6064623 L13,11.2699525 Z"/>
</svg>
