<svg fill="#000000" height="24" viewBox="0 0 24 24" width="24" xmlns="http://www.w3.org/2000/svg">
    <path d="M11.99,2 C6.47,2 2,6.47 2,12 C2,17.53 6.47,22 11.99,22 C17.51,22 22,17.53 22,12 C22,6.47 17.52,2 11.99,2 L11.99,2 Z M12,20 C7.58,20 4,16.42 4,12 C4,7.58 7.58,4 12,4 C16.42,4 20,7.58 20,12 C20,16.42 16.42,20 12,20 L12,20 Z M15.65,11.53 L16.71,10.47 L15.65,9.41 L16.71,8.35 L15.65,7.29 L13.53,9.41 L15.65,11.53 Z M8.35,9.41 L7.29,10.47 L8.35,11.53 L10.47,9.41 L8.35,7.29 L7.29,8.35 L8.35,9.41 Z M12,17.5 C14.33,17.5 16.31,16.04 17.11,14 L6.89,14 C7.69,16.04 9.67,17.5 12,17.5 L12,17.5 Z"/>
    <path d="M0 0h24v24H0z" fill="none"/>
</svg>
